<?xml version="1.0" encoding="UTF-8" standalone="no"?>
<!DOCTYPE svg PUBLIC "-//W3C//DTD SVG 1.1//EN" "http://www.w3.org/Graphics/SVG/1.1/DTD/svg11.dtd">
<svg width="100%" height="100%" viewBox="0 0 215 178" version="1.1" xmlns="http://www.w3.org/2000/svg" xmlns:xlink="http://www.w3.org/1999/xlink" xml:space="preserve" xmlns:serif="http://www.serif.com/" style="fill-rule:evenodd;clip-rule:evenodd;stroke-linejoin:round;stroke-miterlimit:2;">
    <g transform="matrix(1,0,0,0.880383,-1022.76,-1813.97)">
        <rect id="アートボード1" x="1022.76" y="2060.43" width="214.961" height="201.526" style="fill:none;"/>
        <clipPath id="_clip1">
            <rect id="アートボード11" serif:id="アートボード1" x="1022.76" y="2060.43" width="214.961" height="201.526"/>
        </clipPath>
        <g clip-path="url(#_clip1)">
            <g transform="matrix(3.76389,0,0,4.27529,1113.9,2226.49)">
                <path d="M0,5.224L0,2.318L2.196,2.318L2.196,1.05L0,1.05L0,-2.092L-1.264,-2.092L-1.264,5.57C-1.264,6.109 -0.945,6.59 -0.466,6.767C-0.06,6.917 0.35,7.018 1.015,7.124C1.53,7.205 2.547,7.316 2.547,7.316L2.547,5.878C2.547,5.878 1.853,5.839 1.287,5.787C0.818,5.744 0.512,5.703 0.287,5.632C0.117,5.578 0,5.413 0,5.224" style="fill:rgb(36,27,22);fill-rule:nonzero;"/>
            </g>
            <g transform="matrix(3.76389,0,0,4.27529,1098.85,2244.34)">
                <path d="M0,-3.124L-2.196,-3.124L-2.196,-1.856L0,-1.856L0,0.946C0,1.203 -0.178,1.404 -0.412,1.464C-0.985,1.611 -2.547,1.826 -2.547,1.826L-2.547,3.142C-2.547,3.142 -0.478,2.833 0.273,2.659C0.84,2.527 1.264,2.031 1.264,1.413L1.264,-6.266L0,-6.266L0,-3.124Z" style="fill:rgb(36,27,22);fill-rule:nonzero;"/>
            </g>
            <g transform="matrix(3.76389,0,0,4.27529,1071.73,2257.33)">
                <path d="M0,-4.389L-6.364,-4.389C-6.68,-4.389 -6.937,-4.116 -6.937,-3.778L-6.937,-0.611C-6.937,-0.273 -6.68,0 -6.364,0L0,0C0.317,0 0.573,-0.273 0.573,-0.611L0.573,-3.778C0.573,-4.116 0.317,-4.389 0,-4.389M-0.845,-1.214L-5.519,-1.214C-5.563,-1.214 -5.599,-1.253 -5.599,-1.3L-5.599,-3.089C-5.599,-3.136 -5.563,-3.175 -5.519,-3.175L-0.845,-3.175C-0.8,-3.175 -0.764,-3.136 -0.764,-3.089L-0.764,-1.3C-0.764,-1.253 -0.8,-1.214 -0.845,-1.214" style="fill:rgb(36,27,22);fill-rule:nonzero;"/>
            </g>
            <g transform="matrix(3.76389,0,0,4.27529,1071.83,2231.91)">
                <path d="M0,-2.553L-1.428,-2.553L-0.691,-0.724C-0.669,-0.669 -0.707,-0.607 -0.764,-0.607L-5.758,-0.607C-5.816,-0.607 -5.855,-0.671 -5.83,-0.727L-4.724,-3.214L-6.153,-3.214C-6.153,-3.214 -6.988,-1.393 -7.25,-0.746C-7.287,-0.653 -7.308,-0.566 -7.316,-0.465C-7.325,-0.347 -7.325,-0.122 -7.312,0.05C-7.286,0.387 -7.08,0.661 -6.585,0.661L0.14,0.661C0.545,0.661 0.761,0.387 0.785,0.05C0.796,-0.112 0.8,-0.312 0.795,-0.437C0.789,-0.563 0.741,-0.703 0.711,-0.79C0.543,-1.265 0,-2.553 0,-2.553" style="fill:rgb(36,27,22);fill-rule:nonzero;"/>
            </g>
            <g transform="matrix(-3.73334,-0.543602,-0.478578,4.24059,1184.64,2224.32)">
                <path d="M-1.665,-0.922L0.073,-0.922L-0.059,0.106L-1.797,0.106L-1.665,-0.922Z" style="fill:rgb(36,27,22);fill-rule:nonzero;"/>
            </g>
            <g transform="matrix(-3.74572,-0.419542,-0.369358,4.25465,1184.68,2231.45)">
                <path d="M-1.68,-0.897L0.052,-0.897L-0.055,0.196L-1.776,0.083L-1.68,-0.897Z" style="fill:rgb(36,27,22);fill-rule:nonzero;"/>
            </g>
            <g transform="matrix(3.76389,0,0,4.27529,1206.12,2239.71)">
                <path d="M0,3.136C-0.678,3.147 -1.39,3.163 -2.18,3.12C-3.531,3.047 -3.937,2.272 -3.936,1.551C-3.935,1.242 -3.938,1.05 -3.938,1.001C-3.938,0.751 -3.937,-0.986 -3.937,-0.986L-5.728,-0.986L-5.728,0.125L-5.046,0.125C-5.046,0.125 -5.027,1.416 -5.045,1.938C-5.055,2.23 -5.159,2.486 -5.245,2.72C-5.432,3.225 -5.842,4.122 -5.842,4.122L-4.493,4.122C-4.493,4.122 -4.455,3.998 -4.329,3.645C-4.26,3.452 -4.241,3.415 -4.152,3.146C-4.152,3.146 -3.967,3.372 -3.887,3.438C-3.566,3.7 -3.265,3.857 -2.919,3.948C-2.337,4.102 -1.598,4.122 -0.209,4.122L2.884,4.122L2.884,3.077C2.884,3.077 1.051,3.119 0,3.136" style="fill:rgb(36,27,22);fill-rule:nonzero;"/>
            </g>
            <g transform="matrix(3.76389,0,0,4.27529,1196.86,2220.59)">
                <path d="M0,0.356L3.921,0.356L3.921,0.844L4.968,0.844L4.968,-0.488L-1.047,-0.488L-1.047,0.844L0,0.844L0,0.356Z" style="fill:rgb(36,27,22);fill-rule:nonzero;"/>
            </g>
            <g transform="matrix(3.76389,0,0,4.27529,1202.13,2223.34)">
                <path d="M-0.041,6.749L1.157,6.749L1.157,6.199L3.535,6.199L3.535,5.347L1.157,5.347L1.157,4.879L2.786,4.879C3.104,4.879 3.362,4.604 3.362,4.265L3.362,1.726L1.157,1.726L1.157,1.293L3.369,1.293L3.369,0.486L1.157,0.486L1.157,0L-0.041,0L-0.041,0.486L-2.254,0.486L-2.254,1.293L-0.041,1.293L-0.041,1.726L-2.246,1.726L-2.246,4.879L-0.041,4.879L-0.041,5.347L-2.419,5.347L-2.419,6.199L-0.041,6.199L-0.041,6.749ZM2.311,2.49L2.311,3.867C2.311,3.962 2.239,4.039 2.149,4.039L1.157,4.039L1.157,3.6L1.867,3.6L1.867,2.928L1.157,2.928L1.157,2.49L2.311,2.49ZM-1.195,4.039L-1.195,2.49L-0.041,2.49L-0.041,2.928L-0.751,2.928L-0.751,3.6L-0.041,3.6L-0.041,4.039L-1.195,4.039Z" style="fill:rgb(36,27,22);fill-rule:nonzero;"/>
            </g>
            <g transform="matrix(3.76389,0,0,4.27529,0.761805,1196)">
                <rect x="308.494" y="245.6" width="1.602" height="0.928" style="fill:rgb(36,27,22);"/>
            </g>
            <g transform="matrix(3.76389,0,0,4.27529,1167.93,2237.55)">
                <path d="M0,-0.051L0.535,-0.051L0.535,-1.036L0,-1.036L0,-2.469L-2.074,-2.469L-2.074,-3.075L0.202,-3.075L0.202,-3.967L-2.074,-3.967L-2.074,-4.679L-3.272,-4.679L-3.272,-3.967L-5.404,-3.967L-5.404,-3.075L-3.272,-3.075L-3.272,-2.469L-5.151,-2.469L-5.151,-1.597L-3.272,-1.597L-3.272,-1.036L-5.426,-1.036L-5.426,-0.051L-3.272,-0.051L-3.272,0.506L-5.151,0.506L-5.151,1.417L-3.272,1.417L-3.272,3.295C-3.716,3.209 -4.133,3.004 -4.483,2.701C-4.458,2.321 -4.472,1.978 -4.472,1.978L-5.459,1.978L-5.459,2.276C-5.459,2.666 -5.516,2.873 -5.593,3.17C-5.709,3.62 -6.096,4.628 -6.096,4.628L-4.831,4.628C-4.831,4.628 -4.713,4.098 -4.616,3.593C-4.615,3.593 -4.615,3.594 -4.614,3.594C-4.178,3.968 -3.595,4.189 -3.136,4.327C-2.522,4.511 -1.226,4.573 -0.365,4.606C0.086,4.623 0.403,4.628 0.403,4.628L0.403,3.48L-1.222,3.485C-1.506,3.486 -1.79,3.475 -2.073,3.454C-2.073,2.728 -2.074,2.145 -2.074,1.417L-0.576,1.417C-0.258,1.417 0,1.142 0,0.803L0,-0.051ZM-1.094,0.337C-1.094,0.43 -1.165,0.506 -1.253,0.506L-2.074,0.506L-2.074,-0.051L-1.094,-0.051L-1.094,0.337ZM-1.094,-1.036L-2.074,-1.036L-2.074,-1.597L-1.094,-1.597L-1.094,-1.036Z" style="fill:rgb(36,27,22);fill-rule:nonzero;"/>
            </g>
            <g transform="matrix(3.76389,0,0,4.27529,1146.18,2236.11)">
                <path d="M0,0.72L0,-0.545L-0.528,-0.297C-0.528,-0.877 -0.527,-1.3 -0.527,-1.3L0.013,-1.3L0.013,-2.442L-0.527,-2.442L-0.527,-4.244L-1.636,-4.244L-1.636,-2.442L-2.477,-2.442L-2.477,-1.3L-1.636,-1.3L-1.636,0.224L-2.477,0.619L-2.477,1.941L-1.636,1.526L-1.636,2.676C-1.636,3.01 -1.723,3.243 -1.818,3.469C-2.076,4.086 -2.578,4.964 -2.578,4.964L-1.266,4.964C-1.266,4.964 -0.862,4.048 -0.677,3.463C-0.603,3.228 -0.531,2.934 -0.527,2.653C-0.523,2.284 -0.528,1.642 -0.528,0.98L0,0.72Z" style="fill:rgb(36,27,22);fill-rule:nonzero;"/>
            </g>
            <g transform="matrix(3.76389,0,0,4.27529,1023.11,2063.85)">
                <path d="M0,17.973L2.927,14.258C4.063,12.815 5.74,11.982 7.508,11.982L9.418,11.982C11.186,11.982 12.864,11.149 14,9.706L19.853,2.276C20.989,0.833 22.666,0 24.434,0L44.109,0L41.183,3.715C40.047,5.158 38.369,5.991 36.602,5.991L34.691,5.991C32.923,5.991 31.246,6.824 30.11,8.267L24.257,15.697C23.12,17.14 21.443,17.973 19.675,17.973L0,17.973Z" style="fill:rgb(75,183,72);fill-rule:nonzero;"/>
            </g>
            <g transform="matrix(3.76389,0,0,4.27529,1072.14,2115.09)">
                <path d="M0,17.973L2.927,14.258C4.063,12.815 5.74,11.982 7.508,11.982L9.418,11.982C11.186,11.982 12.863,11.149 14,9.706L19.853,2.276C20.989,0.833 22.666,0 24.434,0L44.109,0L41.183,3.715C40.047,5.158 38.369,5.991 36.602,5.991L34.691,5.991C32.923,5.991 31.246,6.824 30.11,8.267L24.257,15.697C23.12,17.14 21.443,17.973 19.675,17.973L0,17.973Z" style="fill:rgb(0,121,169);fill-rule:nonzero;"/>
            </g>
        </g>
    </g>
</svg>
